<?xml version="1.0" standalone="no"?>
<!DOCTYPE svg PUBLIC "-//W3C//DTD SVG 20010904//EN"
 "http://www.w3.org/TR/2001/REC-SVG-20010904/DTD/svg10.dtd">
<svg version="1.0" xmlns="http://www.w3.org/2000/svg"
 width="1600.000000pt" height="1600.000000pt" viewBox="0 0 1600.000000 1600.000000"
 preserveAspectRatio="xMidYMid meet">
<metadata>
Created by potrace 1.11, written by Peter Selinger 2001-2013
</metadata>
<g transform="translate(0.000000,1600.000000) scale(0.100000,-0.100000)"
fill="#000000" stroke="none">
<path d="M9458 14075 c-2 -2 -17 -5 -34 -8 -95 -15 -212 -108 -256 -204 -18
-39 -22 -67 -22 -148 -1 -87 3 -107 26 -155 46 -96 138 -178 232 -205 87 -25
176 -18 258 23 191 94 260 249 205 457 -9 32 -51 96 -87 133 -43 43 -110 83
-165 97 -30 8 -151 15 -157 10z"/>
<path d="M12570 13884 c-58 -20 -105 -52 -156 -106 -119 -124 -195 -252 -247
-413 -23 -71 -32 -111 -51 -230 -3 -16 -19 -111 -36 -210 -17 -99 -33 -193
-36 -210 -2 -16 -13 -79 -24 -140 -23 -129 -27 -157 -35 -210 -17 -118 -76
-206 -162 -243 -26 -11 -111 -32 -188 -47 -313 -58 -340 -67 -397 -128 -49
-53 -69 -105 -94 -237 -13 -69 -26 -135 -28 -147 -4 -17 1 -24 17 -28 20 -5
303 -56 387 -70 19 -3 42 -8 50 -10 8 -2 35 -7 60 -10 25 -3 52 -8 60 -10 8
-2 53 -11 100 -20 47 -8 108 -20 135 -25 28 -6 65 -13 84 -16 18 -3 43 -8 55
-10 23 -5 30 -6 196 -35 107 -19 214 -39 285 -53 17 -4 41 -9 55 -11 14 -3 36
-7 50 -10 47 -8 315 -55 460 -81 218 -39 202 -41 217 36 7 36 15 76 17 90 24
116 25 133 12 205 -8 45 -45 112 -75 137 -11 9 -105 71 -208 138 -214 138
-246 165 -279 235 -31 65 -30 97 7 311 31 185 36 212 43 254 10 53 76 437 82
474 3 21 8 48 11 60 13 52 12 284 -2 356 -41 206 -122 358 -215 398 -36 16
-124 25 -150 16z"/>
<path d="M6729 11906 c-2 -2 -61 -6 -130 -10 -70 -4 -136 -9 -148 -11 -12 -2
-49 -6 -84 -9 -53 -5 -120 -14 -237 -30 -76 -11 -228 -38 -268 -47 -64 -14
-82 -18 -117 -24 -73 -13 -384 -98 -501 -136 -71 -24 -131 -43 -134 -44 -27
-7 -97 -30 -105 -35 -5 -4 -32 -15 -60 -24 -27 -10 -69 -26 -92 -37 -24 -10
-45 -19 -48 -19 -4 0 -25 -9 -48 -19 -23 -10 -88 -39 -143 -64 -180 -81 -496
-252 -624 -337 -30 -20 -59 -39 -65 -41 -12 -5 -128 -82 -135 -90 -3 -3 -27
-20 -55 -39 -92 -62 -307 -229 -394 -306 -20 -18 -65 -58 -101 -89 -197 -175
-424 -414 -599 -630 -40 -49 -80 -99 -89 -110 -47 -58 -227 -315 -293 -420
-263 -415 -464 -846 -612 -1310 -36 -112 -108 -378 -122 -450 -5 -22 -9 -44
-11 -50 -8 -33 -33 -156 -38 -190 -4 -22 -11 -65 -16 -95 -5 -30 -12 -77 -16
-105 -3 -27 -8 -58 -10 -68 -2 -10 -6 -46 -9 -80 -3 -34 -8 -73 -10 -87 -28
-182 -27 -842 1 -1095 15 -133 28 -227 44 -325 5 -30 12 -71 15 -90 77 -471
254 -1006 491 -1486 101 -205 113 -235 104 -260 -10 -33 -57 -276 -65 -344 -3
-25 -8 -56 -10 -70 -2 -14 -6 -47 -10 -75 -3 -27 -8 -66 -10 -85 -32 -244 -21
-742 20 -930 3 -14 10 -47 16 -75 29 -147 89 -324 160 -467 265 -538 766 -866
1396 -914 158 -12 428 -7 535 11 12 2 41 6 63 10 340 49 709 155 1085 312 120
50 152 65 360 165 l184 89 66 -15 c90 -21 254 -52 315 -62 11 -1 38 -5 60 -8
22 -4 54 -8 70 -11 17 -2 57 -7 90 -11 33 -4 69 -8 80 -9 11 -1 30 -3 42 -4
20 -1 22 -6 22 -59 0 -165 129 -320 291 -347 73 -13 512 -6 670 10 25 3 74 7
110 11 112 11 223 24 255 30 10 2 37 6 60 9 22 3 60 10 85 15 25 5 59 11 75
14 52 7 266 54 370 81 616 161 1181 413 1700 759 124 82 287 200 341 245 17
14 46 38 65 53 34 26 43 34 128 106 104 89 175 155 311 292 304 306 509 562
753 940 46 72 117 189 117 194 0 2 23 43 51 92 63 110 193 376 248 509 23 55
46 109 51 120 126 294 271 829 326 1200 20 137 21 145 29 230 4 39 9 77 10 85
19 104 27 692 12 920 -5 68 -10 127 -12 130 -1 3 -6 39 -9 80 -8 84 -10 103
-32 245 -45 299 -92 505 -132 578 -81 150 -292 233 -435 173 -20 -8 -38 -12
-40 -8 -2 4 -23 66 -47 137 -23 72 -62 181 -86 243 -49 127 -50 131 -30 175
35 78 169 456 246 692 91 281 105 325 156 500 36 126 131 484 149 565 61 268
65 310 40 397 -69 243 -345 351 -556 217 -99 -62 -146 -140 -184 -304 -15 -63
-31 -128 -36 -145 -4 -16 -25 -95 -45 -175 -45 -183 -129 -471 -195 -677 -28
-87 -54 -168 -56 -181 -8 -36 -16 -33 -53 21 -46 69 -200 278 -217 295 -18 19
-17 22 24 67 72 80 107 195 91 303 -15 99 -41 137 -202 297 -307 305 -665 580
-1086 836 -175 106 -573 300 -790 386 -183 73 -514 185 -580 197 -14 2 -44 11
-67 20 -24 8 -43 13 -43 11 0 -2 -24 3 -52 11 -29 8 -107 26 -173 40 -153 32
-142 30 -200 39 -27 5 -52 9 -55 10 -3 1 -32 5 -65 9 -33 5 -69 10 -80 12 -11
2 -45 6 -75 9 -30 3 -66 8 -80 10 -14 3 -54 7 -90 10 -36 3 -92 8 -125 11 -69
6 -640 15 -646 10z m-3875 -9306 c299 -330 815 -768 976 -827 71 -27 174 -27
248 -2 56 19 147 79 170 111 18 24 32 19 151 -51 95 -56 206 -116 330 -176
l65 -32 -88 -31 c-81 -30 -300 -96 -349 -106 -12 -3 -65 -14 -117 -25 -260
-56 -544 -66 -747 -27 -120 24 -268 84 -360 147 -70 48 -158 140 -210 221
-103 159 -158 317 -199 573 -3 17 -7 111 -10 210 l-6 180 44 -50 c23 -27 70
-79 102 -115z"/>
<path d="M14568 9954 c-2 -1 -23 -4 -48 -7 -91 -11 -164 -50 -236 -129 -86
-93 -108 -266 -49 -384 42 -83 128 -166 201 -194 60 -23 156 -31 220 -18 102
20 206 103 256 206 30 60 33 75 33 157 0 76 -4 98 -26 146 -45 95 -124 170
-210 198 -38 12 -137 30 -141 25z"/>
</g>
</svg>
