<?xml version="1.0" standalone="no"?>
<!DOCTYPE svg PUBLIC "-//W3C//DTD SVG 20010904//EN"
 "http://www.w3.org/TR/2001/REC-SVG-20010904/DTD/svg10.dtd">
<svg version="1.0" xmlns="http://www.w3.org/2000/svg"
 width="512.000000pt" height="512.000000pt" viewBox="0 0 512.000000 512.000000"
 preserveAspectRatio="xMidYMid meet">
<metadata>
Created by potrace 1.11, written by Peter Selinger 2001-2013
</metadata>
<g transform="translate(0.000000,512.000000) scale(0.100000,-0.100000)"
fill="#000000" stroke="none">
<path d="M2581 4629 c-68 -27 -240 -189 -333 -314 -49 -65 -169 -282 -167
-300 0 -3 -9 -36 -21 -73 -12 -37 -24 -75 -26 -85 -2 -10 -5 -26 -8 -35 -3 -9
-8 -42 -12 -72 -4 -30 -8 -64 -10 -75 -1 -11 -3 -195 -3 -408 l-1 -388 -291
-292 c-349 -350 -341 -337 -347 -531 -3 -81 -1 -131 6 -135 19 -11 495 -5 532
8 31 10 53 32 92 91 7 12 11 12 15 2 10 -26 56 -73 85 -88 21 -11 61 -16 128
-17 l98 -1 -54 -108 c-30 -59 -54 -119 -54 -133 0 -36 42 -75 81 -75 l31 0
-41 -42 c-23 -24 -59 -77 -79 -117 -36 -73 -37 -78 -36 -180 0 -116 4 -138 33
-223 43 -125 121 -233 310 -429 l129 -134 99 100 c300 306 376 444 377 685 1
93 -2 111 -26 162 -28 61 -68 118 -107 155 l-24 23 32 0 c39 0 81 38 81 75 0
14 -24 74 -54 133 l-54 108 81 -2 c44 0 97 3 118 8 41 11 96 59 111 98 l10 25
13 -31 c18 -43 61 -81 104 -91 27 -6 459 -9 515 -4 4 1 6 61 4 134 -6 197 3
183 -346 534 l-291 291 -2 399 c-1 444 -8 511 -64 680 -72 215 -179 384 -340
535 -147 138 -214 169 -294 137z"/>
</g>
</svg>
